<?xml version="1.0" encoding="utf-8"?>
<!-- Generator: Adobe Illustrator 16.0.0, SVG Export Plug-In . SVG Version: 6.00 Build 0)  -->
<!DOCTYPE svg PUBLIC "-//W3C//DTD SVG 1.0//EN" "http://www.w3.org/TR/2001/REC-SVG-20010904/DTD/svg10.dtd">
<svg version="1.0" id="Layer_2" xmlns="http://www.w3.org/2000/svg" xmlns:xlink="http://www.w3.org/1999/xlink" x="0px" y="0px"
	 width="17px" height="17px" viewBox="0 0 17 17" preserveAspectRatio="xMinYMin meet" enable-background="new 0 0 17 17" xml:space="preserve">
<path fill-rule="evenodd" clip-rule="evenodd" fill="#FFFFFF" d="M11.7,9.25c0.033,0,0.083-0.033,0.149-0.1
	c0.167-0.167,0.25-0.367,0.25-0.601V8.5c0-0.233-0.083-0.433-0.25-0.6L7.4,4.6C7.267,4.5,7.083,4.45,6.85,4.45S6.417,4.533,6.25,4.7
	C6.083,4.867,6,5.067,6,5.3c0,0.233,0.083,0.434,0.25,0.6C6.317,5.967,6.4,6.033,6.5,6.1l3.4,2.45l-3.4,2.4
	c-0.1,0.066-0.183,0.133-0.25,0.2C6.083,11.316,6,11.517,6,11.75s0.083,0.434,0.25,0.6c0.167,0.167,0.367,0.25,0.6,0.25
	s0.433-0.083,0.6-0.25L11.7,9.25z M17,8.5c0,2.366-0.816,4.366-2.45,6C12.884,16.167,10.866,17,8.5,17c-2.333,0-4.333-0.833-6-2.5
	C0.833,12.866,0,10.866,0,8.5c0-2.367,0.833-4.367,2.5-6C4.167,0.833,6.167,0,8.5,0c2.366,0,4.384,0.833,6.05,2.5
	C16.184,4.133,17,6.133,17,8.5z"/>
</svg>
