<svg id="Layer_1" data-name="Layer 1" xmlns="http://www.w3.org/2000/svg" viewBox="0 0 148.33 35"><defs><style>.cls-1{stroke:#2d1a16;}.cls-2{fill:none;stroke:#ca2b28;}</style></defs><title>sporx_logo</title><path class="cls-1" d="M27.37,36.76" transform="translate(0 0)"/><path class="cls-2" d="M295.54,16.94" transform="translate(0 0)"/><path d="M20.21,7.61C19.43,6.12,19,6.32,16.9,6.17a50,50,0,0,0-6.89,0c-1.46.16-1.92,0.53-1.92,1.63S8.86,9.24,9.82,9.33a27.45,27.45,0,0,0,3.93.09,88.32,88.32,0,0,1,10.58.34c2.54,0.38,5.17,1.77,5.17,6.18s-1.65,5.53-5,6.61-6.5.84-10,.88a54.67,54.67,0,0,1-7.86-.31C3,22.79,2.39,22,1.34,20.54a10.11,10.11,0,0,1-1.34-4H8.24c0,1.39,1,1.7,2.06,1.82a29.36,29.36,0,0,0,3.5.09c1.77,0,4,0,5.27,0S21.4,18,21.4,16.47s-1.63-1.58-2.49-1.63-9.43,0-12.55-.24S0.24,13.5.24,8.23s4.36-6,6.13-6.32,7.39-.43,8.24-0.48a73.12,73.12,0,0,1,7.71.29c1.34,0.24,4.5.67,5.27,2.78a6.13,6.13,0,0,1,.53,3.11h-7.9" transform="translate(0 0)"/><path d="M87.53,2.9c-2-1-5-1.57-11.37-1.48H72.74s-2.34.08-3.87,0.26c-3.31.38-5.1,0.88-6.87,3.47-1,1.5-.91,4.15-0.91,7.61v0c-0.18,6.3,1.31,7.92,3.92,9.42,1.92,1.09,5.26,1.1,10.75,1.1a65.68,65.68,0,0,0,8.51-.41c3.48-.48,5-1.91,6.06-4.09,0.76-1.62.75-3.53,0.75-6.61C91.07,7.45,90.34,4.33,87.53,2.9ZM83,14.18c-0.07,1.36-.27,2.93-3.68,3.3a37.14,37.14,0,0,1-7.49-.1,3.15,3.15,0,0,1-2.9-3.58c0-.24,0-3.71,0-3.71,0.61-3.17,4.26-2.79,4.26-2.79s3.23-.07,6.2.07C82.79,7.52,83,10,83,10.29S83.07,12.81,83,14.18Z" transform="translate(0 0)"/><path d="M91.89,1.81V22.76h7.7V12.54s-0.17-5.08,3.88-5.31a26.6,26.6,0,0,1,3.27,0,2.82,2.82,0,0,1,2.18,2.59l0.14,1.09h7.46a16.64,16.64,0,0,0-.82-5.69c-1-2.49-2.28-3.47-5.38-3.82s-6.16-.17-8.34,1.19a6.19,6.19,0,0,0-2.32,3.07V1.81H91.89Z" transform="translate(0 0)"/><path d="M53.58,1.74a52.82,52.82,0,0,0-9.33-.31c-2.68.21-4.38,0.72-6.24,3.46v-3H30.17V35H38V19.22s0.72,3.15,5.31,3.76A31.42,31.42,0,0,0,54,22.83c2.53-.57,6.19-1.29,6.19-10.06C60.23,4.37,58.79,2.82,53.58,1.74ZM52.21,14c-0.07,1.36-.27,2.93-3.68,3.3a37.23,37.23,0,0,1-7.49-.1,3.15,3.15,0,0,1-2.9-3.58c0-.24,0-3.71,0-3.71,0.61-3.17,4.26-2.79,4.26-2.79s3.23-.07,6.2.07c3.37,0.16,3.54,2.66,3.57,2.93S52.28,12.68,52.21,14Z" transform="translate(0 0)"/><path class="cls-2" d="M116.82,6.92" transform="translate(0 0)"/><path d="M141.61,0h-17.7a6.79,6.79,0,0,0-6.42,6.43V17.54c0,6.34,6.42,6.72,6.42,6.72h17.7c6.16,0,6.72-6.16,6.72-6.16V6C147.75,0,141.61,0,141.61,0Zm-0.82,2.29a1,1,0,1,1-1,1A1,1,0,0,1,140.79,2.29Zm-2.45,0a1,1,0,1,1-1,1A1,1,0,0,1,138.34,2.29Zm-0.06,10.26a1,1,0,1,1-1,1A1,1,0,0,1,138.28,12.56Zm-1-4.16a1,1,0,1,1,1,1A1,1,0,0,1,137.27,8.4Zm-1.51-3.52a1,1,0,1,1-1,1A1,1,0,0,1,135.76,4.87Zm-5,0a1,1,0,1,1-1,1A1,1,0,0,1,130.77,4.87Zm-2.48-2.58a1,1,0,1,1-1,1A1,1,0,0,1,128.29,2.29Zm1,6.1a1,1,0,1,1-1-1A1,1,0,0,1,129.3,8.4Zm-3.58-6.15a1,1,0,1,1-1,1A1,1,0,0,1,125.73,2.25Zm1,3.63a1,1,0,1,1-1-1A1,1,0,0,1,126.77,5.88Zm-3.55,16.25a1,1,0,1,1,1-1A1,1,0,0,1,123.22,22.14Zm-1-3.56a1,1,0,1,1,1,1A1,1,0,0,1,122.2,18.58Zm1.07-14.31a1,1,0,1,1,1-1A1,1,0,0,1,123.28,4.27Zm2.39,13.3a1,1,0,1,1-1,1A1,1,0,0,1,125.66,17.57Zm0,4.57a1,1,0,1,1,1-1A1,1,0,0,1,125.67,22.14Zm0.09-5.07a1,1,0,1,1,1-1A1,1,0,0,1,125.76,17.06Zm2.45-12.19a1,1,0,1,1-1,1A1,1,0,0,1,128.21,4.87Zm0,10.17a1,1,0,1,1-1,1A1,1,0,0,1,128.21,15Zm0,2.52a1,1,0,1,1-1,1A1,1,0,0,1,128.23,17.57Zm0,4.57a1,1,0,1,1,1-1A1,1,0,0,1,128.23,22.14Zm0.07-7.56a1,1,0,1,1,1-1A1,1,0,0,1,128.3,14.58Zm2.45-7.19a1,1,0,1,1-1,1A1,1,0,0,1,130.75,7.39Zm0,9.68a1,1,0,1,1,1-1A1,1,0,0,1,130.77,17.06Zm-1-3.49a1,1,0,1,1,1,1A1,1,0,0,1,129.74,13.57Zm1.08-1.63a1,1,0,1,1,1-1A1,1,0,0,1,130.82,11.94Zm2.45-4.6a1,1,0,1,1-1,1A1,1,0,0,1,133.27,7.34Zm0,7.19a1,1,0,1,1,1-1A1,1,0,0,1,133.27,14.54Zm0-2.6a1,1,0,1,1,1-1A1,1,0,0,1,133.27,11.94Zm2.45-4.6a1,1,0,1,1-1,1A1,1,0,0,1,135.72,7.34Zm0.05,9.72a1,1,0,1,1,1-1A1,1,0,0,1,135.77,17.06Zm-1.06-3.54a1,1,0,1,1,1,1A1,1,0,0,1,134.71,13.53Zm1.12-1.59a1,1,0,1,1,1-1A1,1,0,0,1,135.83,11.94Zm2.39-7.07a1,1,0,1,1-1,1A1,1,0,0,1,138.21,4.87Zm0,10.17a1,1,0,1,1-1,1A1,1,0,0,1,138.22,15Zm0.13,2.52a1,1,0,1,1-1,1A1,1,0,0,1,138.35,17.57Zm0,4.57a1,1,0,1,1,1-1A1,1,0,0,1,138.35,22.14Zm2.43-17.22a1,1,0,1,1-1,1A1,1,0,0,1,140.78,4.91Zm0,10.17a1,1,0,1,1-1,1A1,1,0,0,1,140.78,15.09Zm0,2.48a1,1,0,1,1-1,1A1,1,0,0,1,140.8,17.57Zm0,4.57a1,1,0,1,1,1-1A1,1,0,0,1,140.8,22.14Zm2.55-19.8a1,1,0,1,1-1,1A1,1,0,0,1,143.35,2.34Zm0,15.28a1,1,0,1,1-1,1A1,1,0,0,1,143.36,17.61Zm0,4.57a1,1,0,1,1,1-1A1,1,0,0,1,143.37,22.18Z" transform="translate(0 0)"/></svg>